<?xml version="1.0" encoding="UTF-8"?><!DOCTYPE svg PUBLIC "-//W3C//DTD SVG 1.1//EN" "http://www.w3.org/Graphics/SVG/1.1/DTD/svg11.dtd">
<svg xmlns="http://www.w3.org/2000/svg" xmlns:xlink="http://www.w3.org/1999/xlink" version="1.1" width="24" height="24" viewBox="0 0 24 24">
<path d="M7,0.9c-0.4,0-0.8,0.3-0.8,0.8v1.2H3c-0.4,0-0.8,0.3-0.8,0.8v18.8c0,0.4,0.3,0.8,0.8,0.8h18c0.4,0,0.8-0.3,0.8-0.8V3.6
	c0-0.4-0.3-0.8-0.8-0.8h-3.2V1.6c0-0.4-0.3-0.8-0.8-0.8s-0.8,0.3-0.8,0.8v1.2h-3.5V1.6c0-0.4-0.3-0.8-0.8-0.8s-0.8,0.3-0.8,0.8v1.2
	H7.8V1.6C7.8,1.2,7.4,0.9,7,0.9z M11.2,4.4v1.2c0,0.4,0.3,0.8,0.8,0.8s0.8-0.3,0.8-0.8V4.4h3.5v1.2c0,0.4,0.3,0.8,0.8,0.8
	s0.8-0.3,0.8-0.8V4.4h2.5v17.2H3.8V4.4h2.5v1.2C6.2,6,6.6,6.4,7,6.4S7.8,6,7.8,5.6V4.4H11.2z M6,8.9c0,0.4,0.3,0.8,0.8,0.8h10.5
	c0.4,0,0.8-0.3,0.8-0.8s-0.3-0.8-0.8-0.8H6.8C6.3,8.2,6,8.5,6,8.9z M17.2,11.2H6.8C6.3,11.2,6,11.6,6,12s0.3,0.8,0.8,0.8h10.5
	c0.4,0,0.8-0.3,0.8-0.8S17.7,11.2,17.2,11.2z M17.2,14.2H6.8C6.3,14.2,6,14.6,6,15s0.3,0.8,0.8,0.8h10.5c0.4,0,0.8-0.3,0.8-0.8
	S17.7,14.2,17.2,14.2z M17.2,17.2H6.8C6.3,17.2,6,17.6,6,18s0.3,0.8,0.8,0.8h10.5c0.4,0,0.8-0.3,0.8-0.8S17.7,17.2,17.2,17.2z"/>
</svg>
