<?xml version="1.0" encoding="UTF-8"?>
<!DOCTYPE svg PUBLIC "-//W3C//DTD SVG 1.1//EN" "http://www.w3.org/Graphics/SVG/1.1/DTD/svg11.dtd">
<svg xmlns="http://www.w3.org/2000/svg" xmlns:xlink="http://www.w3.org/1999/xlink" version="1.1" width="24" height="24" viewBox="0 0 24 24">
<path d="M17.6,13.6l-3.8,3v-3l-0.9-0.1c-1.4-0.2-2.5-1.1-2.8-2.4H5.3c-2.9,0-5.3,2.4-5.3,5.3v5c0,2.4,1.6,4.4,3.8,5.1V32l6.5-5.2
	h8.4c2.9,0,5.3-2.4,5.3-5.3v-5c0-1.1-0.3-2-0.8-2.9L17.6,13.6L17.6,13.6z M26.7,0H13.3C10.4,0,8,2.4,8,5.3v5c0,2.4,1.6,4.4,3.8,5.1
	v5.4l6.5-5.2h8.4c2.9,0,5.3-2.4,5.3-5.3v-5C32,2.4,29.6,0,26.7,0z M30,10.3c0,1.8-1.5,3.3-3.3,3.3h-9.1l-3.8,3v-3l-0.9-0.1
	C11.2,13.4,10,12,10,10.3v-5C10,3.5,11.5,2,13.3,2h13.4C28.5,2,30,3.5,30,5.3V10.3z"/>
</svg>
