<?xml version="1.0" encoding="UTF-8"?>
<!DOCTYPE svg PUBLIC "-//W3C//DTD SVG 1.1//EN" "http://www.w3.org/Graphics/SVG/1.1/DTD/svg11.dtd">
<svg xmlns="http://www.w3.org/2000/svg" xmlns:xlink="http://www.w3.org/1999/xlink" version="1.1" width="24" height="24" viewBox="0 0 24 24">
  <path d="M87.2,12.1H12.8c-4.8,0-8.8,4-8.8,8.8v44c0,4.1,3.2,7.3,7.3,7.3h20.6c0.6,0,1.3,0.3,1.6,0.7c0.4,0.4,0.6,1.2,0.4,1.8  l-1.5,9.7c-0.3,2.3,2.2,4.1,4.2,3.1l23.9-15c0.3-0.1,0.7-0.3,1-0.3h27c4.1,0,7.3-3.2,7.3-7.3V21C96,16.1,92.1,12.1,87.2,12.1z   M26.6,47.6c-4.1,0-7.3-3.2-7.3-7.3s3.2-7.3,7.3-7.3s7.3,3.2,7.3,7.3S30.7,47.6,26.6,47.6z M50,47.6c-4.1,0-7.3-3.2-7.3-7.3  S45.9,33,50,33s7.3,3.2,7.3,7.3S54.1,47.6,50,47.6z M73.4,47.6c-4.1,0-7.3-3.2-7.3-7.3s3.2-7.3,7.3-7.3s7.3,3.2,7.3,7.3  S77.5,47.6,73.4,47.6z"/>
</svg>
