<?xml version="1.0" encoding="UTF-8"?>
<svg xmlns="http://www.w3.org/2000/svg" xmlns:xlink="http://www.w3.org/1999/xlink" version="1.1" width="24" height="24" viewBox="0 0 24 24">
  <path d="M71.498,58.709c-1.034-0.38-2.186,0.148-2.569,1.185C66.02,67.783,58.413,73.084,50,73.084  c-11.119,0-20.166-9.047-20.166-20.166v-13c0-1.104-0.896-2-2-2s-2,0.896-2,2v13c0,12.651,9.773,23.056,22.166,24.076v13.922h-6.834  c-1.104,0-2,0.896-2,2s0.896,2,2,2h17.668c1.104,0,2-0.896,2-2s-0.896-2-2-2H52v-13.92c9.27-0.776,17.429-6.894,20.683-15.718  C73.064,60.241,72.534,59.092,71.498,58.709z M72.166,37.918c-1.104,0-2,0.896-2,2v13c0,1.104,0.896,2,2,2s2-0.896,2-2v-13  C74.166,38.813,73.271,37.918,72.166,37.918z M50,69.25c8.96,0,16.25-7.29,16.25-16.25V21.334c0-8.96-7.29-16.25-16.25-16.25  s-16.25,7.29-16.25,16.25V53C33.75,61.96,41.04,69.25,50,69.25z M37.75,21.334c0-6.755,5.495-12.25,12.25-12.25  s12.25,5.495,12.25,12.25V23H52.167c-1.104,0-2,0.896-2,2s0.896,2,2,2H62.25v4H52.167c-1.104,0-2,0.896-2,2s0.896,2,2,2H62.25v4  H52.167c-1.104,0-2,0.896-2,2s0.896,2,2,2H62.25v4H52.167c-1.104,0-2,0.896-2,2s0.896,2,2,2H62.25v2  c0,6.755-5.495,12.25-12.25,12.25S37.75,59.755,37.75,53V21.334z"/>
</svg>
