<?xml version="1.0" encoding="UTF-8"?>
<!DOCTYPE svg PUBLIC "-//W3C//DTD SVG 1.1//EN" "http://www.w3.org/Graphics/SVG/1.1/DTD/svg11.dtd">
<svg xmlns="http://www.w3.org/2000/svg" xmlns:xlink="http://www.w3.org/1999/xlink" version="1.1" width="24" height="24" viewBox="0 0 24 24">
  <path d="M92.5,10h-85C6.1,10,5,11.1,5,12.5v55C5,68.9,6.1,70,7.5,70H20v17.5c0,1.1,0.7,2,1.7,2.4c1,0.3,2.2,0,2.8-0.9l14.3-19h53.8  c1.4,0,2.5-1.1,2.5-2.5v-55C95,11.1,93.9,10,92.5,10z M90,65H37.5c-0.8,0-1.5,0.4-2,1L25,80V67.5c0-1.4-1.1-2.5-2.5-2.5H10V15h80V65  z"/>
  <path d="M22.5,30h30c1.4,0,2.5-1.1,2.5-2.5S53.9,25,52.5,25h-30c-1.4,0-2.5,1.1-2.5,2.5S21.1,30,22.5,30z"/>
  <path d="M77.5,37.5h-25c-1.4,0-2.5,1.1-2.5,2.5s1.1,2.5,2.5,2.5h25c1.4,0,2.5-1.1,2.5-2.5S78.9,37.5,77.5,37.5z"/>
  <path d="M22.5,42.5h20c1.4,0,2.5-1.1,2.5-2.5s-1.1-2.5-2.5-2.5h-20c-1.4,0-2.5,1.1-2.5,2.5S21.1,42.5,22.5,42.5z"/>
  <path d="M57.5,50h-15c-1.4,0-2.5,1.1-2.5,2.5s1.1,2.5,2.5,2.5h15c1.4,0,2.5-1.1,2.5-2.5S58.9,50,57.5,50z"/>
  <path d="M22.5,55h10c1.4,0,2.5-1.1,2.5-2.5S33.9,50,32.5,50h-10c-1.4,0-2.5,1.1-2.5,2.5S21.1,55,22.5,55z"/>
  <path d="M62.5,30h15c1.4,0,2.5-1.1,2.5-2.5S78.9,25,77.5,25h-15c-1.4,0-2.5,1.1-2.5,2.5S61.1,30,62.5,30z"/>
</svg>
