<?xml version="1.0" encoding="UTF-8"?>
<!DOCTYPE svg PUBLIC "-//W3C//DTD SVG 1.1//EN" "http://www.w3.org/Graphics/SVG/1.1/DTD/svg11.dtd">
<svg xmlns="http://www.w3.org/2000/svg" xmlns:xlink="http://www.w3.org/1999/xlink" version="1.1" width="24" height="24" viewBox="0 0 24 24">
  <g>
    <path d="M35.5,90.3c-1.1,0-2.2-0.3-3.2-1c-1.7-1.2-2.6-3.2-2.3-5.2l1.4-9.4H11.3c-5.5,0-9.8-4.3-9.8-9.8V21   c0-6.2,5.1-11.3,11.3-11.3h74.5c6.2,0,11.3,5.1,11.3,11.3v44c0,5.5-4.3,9.8-9.8,9.8h-27l0,0l-24,15C37.1,90.2,36.3,90.3,35.5,90.3z    M36.4,75.3L35,84.9c0,0.2,0.1,0.3,0.2,0.4c0.1,0.1,0.2,0.1,0.4,0.1l24-15c0.3-0.2,1.2-0.6,2.1-0.6h27c2.7,0,4.8-2.1,4.8-4.8V21   c0-3.5-2.8-6.3-6.3-6.3H12.8c-3.5,0-6.3,2.8-6.3,6.3v44c0,2.7,2.1,4.8,4.8,4.8h20.6c1.2,0,2.7,0.5,3.5,1.6   C36.3,72.4,36.7,73.9,36.4,75.3z M73.4,50.1c-5.5,0-9.8-4.3-9.8-9.8s4.3-9.8,9.8-9.8s9.8,4.3,9.8,9.8S78.9,50.1,73.4,50.1z    M73.4,35.5c-2.7,0-4.8,2.1-4.8,4.8s2.1,4.8,4.8,4.8s4.8-2.1,4.8-4.8S76.1,35.5,73.4,35.5z M50,50.1c-5.5,0-9.8-4.3-9.8-9.8   s4.3-9.8,9.8-9.8s9.8,4.3,9.8,9.8S55.5,50.1,50,50.1z M50,35.5c-2.7,0-4.8,2.1-4.8,4.8s2.1,4.8,4.8,4.8s4.8-2.1,4.8-4.8   S52.7,35.5,50,35.5z M26.6,50.1c-5.5,0-9.8-4.3-9.8-9.8s4.3-9.8,9.8-9.8s9.8,4.3,9.8,9.8S32.1,50.1,26.6,50.1z M26.6,35.5   c-2.7,0-4.8,2.1-4.8,4.8s2.1,4.8,4.8,4.8s4.8-2.1,4.8-4.8S29.3,35.5,26.6,35.5z"/>
  </g>
</svg>
